#Wavefront OBJ file created by Amapi 3D V7 
mtllib 04tie fighter.mtl
g Weld_objects_3
usemtl Weld_objects_3
# 108 
v 0.218266 4.02914 -1.92363 
v 0.317322 3.87667 -1.62254 
v 0.416378 4.02914 -1.32145 
v 0.471596 4.39573 -1.15361 
v 0.416378 4.69569 -1.32145 
v 0.317322 4.91478 -1.62254 
v 0.218266 4.69569 -1.92363 
v 0.163049 4.39573 -2.09146 
v -0.732024 -1.84021 -6.95335 
v 0.952985 -1.84021 -1.83167 
v 2.63799 -1.84021 3.29002 
v 3.57728 4.39573 6.14505 
v 2.63799 9.49823 3.29002 
v 0.952986 9.49823 -1.83167 
v -0.732024 9.49823 -6.95335 
v -1.67131 4.39573 -9.80838 
v 2.33783 4.39487 -2.31895 
v -4.62317 7.02197 0.00285765 
v -3.37767 6.5204 -0.909078 
v -4.15156 6.5204 -1.467 
v -5.10559 6.5204 -1.46349 
v -4.14075 6.5204 1.4692 
v -3.37099 6.5204 0.905597 
v -3.07951 6.5204 -0.00282564 
v -2.6079 5.20728 -1.47268 
v -3.86009 5.20728 -2.37542 
v -5.40374 5.20728 -2.36974 
v -3.8426 5.20728 2.37546 
v -2.59709 5.20728 1.46352 
v -2.12548 5.20728 -0.00633814 
v -2.6079 3.58418 -1.47268 
v -3.86009 3.58418 -2.37542 
v -5.40374 3.58418 -2.36974 
v -3.8426 3.58418 2.37546 
v -2.59709 3.58418 1.46352 
v -2.12548 3.58418 -0.00633816 
v -3.37767 2.27106 -0.909077 
v -4.15156 2.27106 -1.467 
v -5.10559 2.27106 -1.46349 
v -4.14075 2.27106 1.4692 
v -3.37099 2.27106 0.905597 
v -3.07951 2.27106 -0.00282574 
v -4.62317 1.76949 0.00285765 
v -4.62857 6.5204 -1.46525 
v -4.63191 5.20728 -2.37258 
v -4.63191 3.58418 -2.37258 
v -4.62857 2.27106 -1.46525 
v -2.36669 3.58418 -0.739511 
v -2.6079 4.39573 -1.47268 
v -2.36669 5.20728 -0.739511 
v -2.12548 4.39573 -0.00633807 
v 0.566661 3.92109 -1.22936 
v 0.566661 4.87037 -1.22936 
v 0.284513 4.87037 -2.08696 
v 0.284513 3.92109 -2.08696 
v -9.65882 4.02914 1.30575 
v -9.56087 3.87667 1.6072 
v -9.46292 4.02914 1.90865 
v -9.40832 4.39573 2.07668 
v -9.46292 4.69569 1.90865 
v -9.56087 4.91478 1.6072 
v -9.65882 4.69569 1.30575 
v -9.71342 4.39573 1.13771 
v -11.8634 -1.8402 -3.31387 
v -10.1973 -1.8402 1.81398 
v -8.53116 -1.8402 6.94184 
v -7.60238 4.39573 9.80031 
v -8.53116 9.49823 6.94184 
v -10.1973 9.49823 1.81398 
v -11.8634 9.49823 -3.31387 
v -12.7922 4.39573 -6.17234 
v -10.5149 4.39487 1.88333 
v -4.61443 7.02197 0 
v -6.15809 6.5204 0 
v -5.86328 6.5204 -0.907344 
v -5.09145 6.5204 -1.46811 
v -4.13741 6.5204 1.46811 
v -5.09145 6.5204 1.46811 
v -5.86328 6.5204 0.907343 
v -7.11213 5.20728 0 
v -6.63511 5.20728 -1.46811 
v -5.38626 5.20728 -2.37546 
v -5.38626 5.20728 2.37546 
v -6.63511 5.20728 1.46811 
v -7.11213 3.58418 0 
v -6.63511 3.58418 -1.46811 
v -5.38626 3.58418 -2.37546 
v -5.38626 3.58418 2.37546 
v -6.63511 3.58418 1.46811 
v -6.15809 2.27106 0 
v -5.86328 2.27106 -0.907344 
v -5.09145 2.27106 -1.46811 
v -4.13741 2.27106 1.46811 
v -5.09145 2.27106 1.46811 
v -5.86328 2.27106 0.907343 
v -4.61443 1.76949 0 
v -5.47736 6.5204 -1.18773 
v -6.01069 5.20728 -1.92178 
v -6.01069 3.58418 -1.92178 
v -5.47736 2.27106 -1.18773 
v -6.87362 3.58418 0.734056 
v -7.11213 4.39573 0 
v -6.87362 5.20728 0.734056 
v -6.63511 4.39573 1.46811 
v -9.52977 3.92109 2.07173 
v -9.52977 4.87037 2.07173 
v -9.80876 4.87037 1.2131 
v -9.80876 3.92109 1.2131 
# 360 
vn 0.943781 0.11344 -0.310499 
vn 0.943781 0.11344 -0.310499 
vn 0.959836 0.077149 -0.269747 
vn 0.959836 0.077149 -0.269747 
vn 0.932504 0.077149 -0.352823 
vn 0.932504 0.077149 -0.352823 
vn 0.943781 0.11344 -0.310499 
vn 0.943781 0.11344 -0.310499 
vn 0.920151 -0.00450697 -0.391538 
vn 0.920151 -0.00450697 -0.391538 
vn 0.932504 0.077149 -0.352823 
vn 0.932504 0.077149 -0.352823 
vn 0.930711 -0.0941568 -0.353429 
vn 0.930711 -0.0941568 -0.353429 
vn 0.920151 -0.00450697 -0.391538 
vn 0.920151 -0.00450697 -0.391538 
vn 0.940777 -0.13835 -0.309511 
vn 0.940777 -0.13835 -0.309511 
vn 0.930711 -0.0941568 -0.353429 
vn 0.930711 -0.0941568 -0.353429 
vn 0.958752 -0.0941567 -0.268194 
vn 0.958752 -0.0941567 -0.268194 
vn 0.940777 -0.13835 -0.309511 
vn 0.940777 -0.13835 -0.309511 
vn 0.972881 -0.00450692 -0.23126 
vn 0.972881 -0.00450692 -0.23126 
vn 0.958752 -0.0941567 -0.268194 
vn 0.958752 -0.0941567 -0.268194 
vn 0.959836 0.077149 -0.269747 
vn 0.959836 0.077149 -0.269747 
vn 0.972881 -0.00450692 -0.23126 
vn 0.972881 -0.00450692 -0.23126 
vn -0.924638 0.229142 0.304201 
vn -0.949684 -0.0167969 0.31276 
vn -0.907423 0.157073 0.389758 
vn -0.96149 0.156781 0.225735 
vn -0.949684 -0.0167969 0.31276 
vn -0.924638 0.229142 0.304201 
vn -0.989406 -0.00910285 0.144887 
vn -0.949684 -0.0167969 0.31276 
vn -0.96149 0.156781 0.225735 
vn -0.955917 -0.189917 0.223953 
vn -0.949684 -0.0167969 0.31276 
vn -0.989406 -0.00910285 0.144887 
vn -0.912906 -0.276403 0.300341 
vn -0.949684 -0.0167969 0.31276 
vn -0.955917 -0.189917 0.223953 
vn -0.90186 -0.190271 0.387873 
vn -0.949684 -0.0167969 0.31276 
vn -0.912906 -0.276403 0.300341 
vn -0.881593 -0.00916535 0.471922 
vn -0.949684 -0.0167969 0.31276 
vn -0.90186 -0.190271 0.387873 
vn -0.907423 0.157073 0.389758 
vn -0.949684 -0.0167969 0.31276 
vn -0.881593 -0.00916535 0.471922 
vn -0.178434 -0.811719 0.556123 
vn -0.471237 -0.811719 0.345032 
vn -0.171126 -0.978851 0.112103 
vn -0.171126 -0.978851 0.112103 
vn 0.0022213 -0.797487 0.603332 
vn 0.00222121 -0.797487 0.603332 
vn 0.00222121 -0.797487 0.603332 
vn -0.178434 -0.811719 0.556123 
vn -0.171126 -0.978851 0.112103 
vn -0.473765 -0.81172 -0.341552 
vn -0.356427 -0.797487 -0.4868 
vn -0.171126 -0.978851 0.112103 
vn -0.584044 -0.811719 0.00215041 
vn -0.473765 -0.81172 -0.341552 
vn -0.171126 -0.978851 0.112103 
vn -0.471237 -0.811719 0.345032 
vn -0.584044 -0.811719 0.00215041 
vn -0.171126 -0.978851 0.112103 
vn -0.178434 -0.811719 0.556123 
vn -0.290302 -0.311607 0.904779 
vn -0.576661 -0.628224 0.522298 
vn -0.471237 -0.811719 0.345032 
vn 0.00222121 -0.797487 0.603332 
vn 0.0022213 -0.797487 0.603332 
vn 0.0035146 -0.29774 0.954641 
vn 0.00351454 -0.29774 0.954641 
vn 0.00351454 -0.29774 0.954641 
vn -0.290302 -0.311607 0.904779 
vn -0.178434 -0.811719 0.556123 
vn 0.00222121 -0.797487 0.603332 
vn -0.473765 -0.81172 -0.341552 
vn -0.770788 -0.311607 -0.555686 
vn -0.295277 -0.311776 -0.90311 
vn -0.356427 -0.797487 -0.4868 
vn -0.584044 -0.811719 0.00215041 
vn -0.774123 -0.628224 -0.0778973 
vn -0.770788 -0.311607 -0.555686 
vn -0.473765 -0.81172 -0.341552 
vn -0.471237 -0.811719 0.345032 
vn -0.576661 -0.628224 0.522298 
vn -0.781495 -0.568473 0.257108 
vn -0.774123 -0.628224 -0.0778973 
vn -0.584044 -0.811719 0.00215041 
vn -0.290302 -0.311607 0.904779 
vn -0.290302 0.311608 0.904779 
vn -0.486784 0.337535 0.805675 
vn -0.584803 7.30394e-008 0.811175 
vn -0.486784 -0.337534 0.805675 
vn 0.00351454 -0.29774 0.954641 
vn 0.0035146 -0.29774 0.954641 
vn 0.00351466 0.29774 0.954641 
vn 0.0035146 0.29774 0.954641 
vn 0.0035146 0.29774 0.954641 
vn -0.290302 0.311608 0.904779 
vn -0.290302 -0.311607 0.904779 
vn 0.00351454 -0.29774 0.954641 
vn -0.770788 -0.311607 -0.555686 
vn -0.770788 0.311608 -0.555686 
vn -0.295277 0.311776 -0.90311 
vn -0.295277 -0.311776 -0.90311 
vn -0.870049 -0.337534 -0.359284 
vn -0.952188 1.86594e-007 -0.305513 
vn -0.870049 0.337535 -0.359284 
vn -0.770788 0.311608 -0.555686 
vn -0.770788 -0.311607 -0.555686 
vn -0.290302 0.311608 0.904779 
vn -0.178434 0.811719 0.556123 
vn -0.471237 0.811719 0.345032 
vn -0.576661 0.628224 0.522298 
vn 0.0035146 0.29774 0.954641 
vn 0.00351466 0.29774 0.954641 
vn 0.00222127 0.797487 0.603332 
vn 0.00222123 0.797487 0.603332 
vn 0.00222123 0.797487 0.603332 
vn -0.178434 0.811719 0.556123 
vn -0.290302 0.311608 0.904779 
vn 0.0035146 0.29774 0.954641 
vn -0.770788 0.311608 -0.555686 
vn -0.473765 0.811719 -0.341553 
vn -0.356427 0.797487 -0.4868 
vn -0.295277 0.311776 -0.90311 
vn -0.774123 0.628224 -0.0778973 
vn -0.584044 0.811719 0.00215023 
vn -0.473765 0.811719 -0.341553 
vn -0.770788 0.311608 -0.555686 
vn -0.781495 0.568473 0.257108 
vn -0.576661 0.628224 0.522298 
vn -0.471237 0.811719 0.345032 
vn -0.584044 0.811719 0.00215023 
vn -0.774123 0.628224 -0.0778973 
vn -0.178434 0.811719 0.556123 
vn -0.171126 0.978851 0.112103 
vn -0.471237 0.811719 0.345032 
vn -0.171126 0.978851 0.112103 
vn -0.178434 0.811719 0.556123 
vn 0.00222123 0.797487 0.603332 
vn 0.00222123 0.797487 0.603332 
vn 0.00222127 0.797487 0.603332 
vn -0.171126 0.978851 0.112103 
vn -0.473765 0.811719 -0.341553 
vn -0.171126 0.978851 0.112103 
vn -0.356427 0.797487 -0.4868 
vn -0.584044 0.811719 0.00215023 
vn -0.171126 0.978851 0.112103 
vn -0.473765 0.811719 -0.341553 
vn -0.471237 0.811719 0.345032 
vn -0.171126 0.978851 0.112103 
vn -0.584044 0.811719 0.00215023 
vn -0.746887 1.08118e-007 -0.664951 
vn -0.413611 1.11172e-008 -0.910454 
vn -0.413611 1.11172e-008 -0.910454 
vn -0.746887 1.08118e-007 -0.664951 
vn -0.50598 -0.786387 0.354373 
vn -0.108165 -0.993496 0.0355857 
vn -0.108165 -0.993496 0.0355857 
vn -0.617546 -0.786387 0.015262 
vn -0.206196 8.96622e-008 0.978511 
vn 0.207742 9.09219e-008 0.978184 
vn 0.207742 9.09219e-008 0.978184 
vn -0.206196 8.96622e-008 0.978511 
vn -0.617546 0.786387 0.015262 
vn -0.108165 0.993496 0.0355858 
vn -0.108165 0.993496 0.0355858 
vn -0.50598 0.786387 0.354372 
vn 0.944917 -0.11344 -0.307022 
vn 0.944917 -0.11344 -0.307022 
vn 0.933797 -0.0771492 -0.349387 
vn 0.933797 -0.0771492 -0.349387 
vn 0.960822 -0.0771491 -0.266212 
vn 0.960822 -0.0771491 -0.266212 
vn 0.944917 -0.11344 -0.307022 
vn 0.944917 -0.11344 -0.307022 
vn 0.973726 0.00450705 -0.227677 
vn 0.973726 0.00450705 -0.227677 
vn 0.960822 -0.0771491 -0.266212 
vn 0.960822 -0.0771491 -0.266212 
vn 0.959733 0.0941569 -0.264663 
vn 0.959733 0.0941569 -0.264663 
vn 0.973726 0.00450705 -0.227677 
vn 0.973726 0.00450705 -0.227677 
vn 0.941911 0.13835 -0.306045 
vn 0.941911 0.13835 -0.306045 
vn 0.959733 0.0941569 -0.264663 
vn 0.959733 0.0941569 -0.264663 
vn 0.932006 0.0941568 -0.35 
vn 0.932006 0.0941568 -0.35 
vn 0.941911 0.13835 -0.306045 
vn 0.941911 0.13835 -0.306045 
vn 0.921586 0.00450685 -0.388148 
vn 0.921586 0.00450685 -0.388148 
vn 0.932006 0.0941568 -0.35 
vn 0.932006 0.0941568 -0.35 
vn 0.933797 -0.0771492 -0.349387 
vn 0.933797 -0.0771492 -0.349387 
vn 0.921586 0.00450685 -0.388148 
vn 0.921586 0.00450685 -0.388148 
vn -0.949779 -0.0518097 0.308602 
vn -0.951072 0.00389593 0.308945 
vn -0.95626 -0.035227 0.290389 
vn -0.944368 -0.0351558 0.327007 
vn -0.951072 0.00389593 0.308945 
vn -0.949779 -0.0518097 0.308602 
vn -0.938506 0.00205066 0.345257 
vn -0.951072 0.00389593 0.308945 
vn -0.944368 -0.0351558 0.327007 
vn -0.944079 0.042935 0.326911 
vn -0.951072 0.00389593 0.308945 
vn -0.938506 0.00205066 0.345257 
vn -0.949152 0.0632567 0.308398 
vn -0.951072 0.00389593 0.308945 
vn -0.944079 0.042935 0.326911 
vn -0.955969 0.043022 0.290297 
vn -0.951072 0.00389593 0.308945 
vn -0.949152 0.0632567 0.308398 
vn -0.962285 0.00206654 0.272037 
vn -0.951072 0.00389593 0.308945 
vn -0.955969 0.043022 0.290297 
vn -0.95626 -0.035227 0.290389 
vn -0.951072 0.00389593 0.308945 
vn -0.962285 0.00206654 0.272037 
vn 0.204298 -0.978851 -0.0106446 
vn 0.584048 -0.811719 -2.23582e-007 
vn 0.472504 -0.81172 0.343294 
vn 0.354632 -0.797487 0.488109 
vn 0.354632 -0.797487 0.48811 
vn 0.204298 -0.978851 -0.0106446 
vn 0.204298 -0.978851 -0.0106446 
vn 0.472504 -0.81172 0.343294 
vn 0.354632 -0.797487 0.488109 
vn 0.204298 -0.978851 -0.0106446 
vn 6.50079e-008 -0.797487 -0.603336 
vn 0.180481 -0.811719 -0.555462 
vn 0.204298 -0.978851 -0.0106446 
vn 0.180481 -0.811719 -0.555462 
vn 0.472504 -0.811719 -0.343295 
vn 0.204298 -0.978851 -0.0106446 
vn 0.472504 -0.811719 -0.343295 
vn 0.584048 -0.811719 -2.23582e-007 
vn 0.584048 -0.811719 -2.23582e-007 
vn 0.905618 -0.409248 0.111232 
vn 0.768737 -0.311607 0.55852 
vn 0.472504 -0.81172 0.343294 
vn 0.561127 -0.29774 0.772326 
vn 0.561127 -0.29774 0.772326 
vn 0.354632 -0.797487 0.48811 
vn 0.354632 -0.797487 0.488109 
vn 0.354632 -0.797487 0.488109 
vn 0.472504 -0.81172 0.343294 
vn 0.768737 -0.311607 0.55852 
vn 0.561127 -0.29774 0.772326 
vn 6.50079e-008 -0.797487 -0.603336 
vn -0.295277 -0.311776 -0.90311 
vn 0.293631 -0.311607 -0.903704 
vn 0.180481 -0.811719 -0.555462 
vn 0.180481 -0.811719 -0.555462 
vn 0.293631 -0.311607 -0.903704 
vn 0.66728 -0.409248 -0.622297 
vn 0.472504 -0.811719 -0.343295 
vn 0.472504 -0.811719 -0.343295 
vn 0.66728 -0.409248 -0.622297 
vn 0.782436 -0.568473 -0.254229 
vn 0.905618 -0.409248 0.111232 
vn 0.584048 -0.811719 -2.23582e-007 
vn 0.905618 -0.409248 0.111232 
vn 0.951057 2.85272e-007 0.309017 
vn 0.905618 0.409248 0.111232 
vn 0.768737 0.311608 0.55852 
vn 0.768737 -0.311607 0.55852 
vn 0.561127 0.29774 0.772326 
vn 0.561127 0.29774 0.772326 
vn 0.561127 -0.29774 0.772326 
vn 0.561127 -0.29774 0.772326 
vn 0.561127 -0.29774 0.772326 
vn 0.768737 -0.311607 0.55852 
vn 0.768737 0.311608 0.55852 
vn 0.561127 0.29774 0.772326 
vn -0.295277 -0.311776 -0.90311 
vn -0.295277 0.311776 -0.90311 
vn 0.293631 0.311608 -0.903704 
vn 0.293631 -0.311607 -0.903704 
vn 0.293631 -0.311607 -0.903704 
vn 0.293631 0.311608 -0.903704 
vn 0.66728 0.409248 -0.622297 
vn 0.587785 1.95961e-007 -0.809017 
vn 0.66728 -0.409248 -0.622297 
vn 0.905618 0.409248 0.111232 
vn 0.584048 0.811719 4.39179e-008 
vn 0.472504 0.811719 0.343295 
vn 0.768737 0.311608 0.55852 
vn 0.354632 0.797487 0.488109 
vn 0.354632 0.797487 0.48811 
vn 0.561127 0.29774 0.772326 
vn 0.561127 0.29774 0.772326 
vn 0.561127 0.29774 0.772326 
vn 0.768737 0.311608 0.55852 
vn 0.472504 0.811719 0.343295 
vn 0.354632 0.797487 0.488109 
vn -0.295277 0.311776 -0.90311 
vn 1.85528e-007 0.797487 -0.603336 
vn 0.180481 0.811719 -0.555462 
vn 0.293631 0.311608 -0.903704 
vn 0.293631 0.311608 -0.903704 
vn 0.180481 0.811719 -0.555462 
vn 0.472504 0.811719 -0.343294 
vn 0.66728 0.409248 -0.622297 
vn 0.66728 0.409248 -0.622297 
vn 0.472504 0.811719 -0.343294 
vn 0.584048 0.811719 4.39179e-008 
vn 0.905618 0.409248 0.111232 
vn 0.782436 0.568473 -0.254229 
vn 0.584048 0.811719 4.39179e-008 
vn 0.204298 0.978851 -0.0106445 
vn 0.472504 0.811719 0.343295 
vn 0.354632 0.797487 0.488109 
vn 0.472504 0.811719 0.343295 
vn 0.204298 0.978851 -0.0106445 
vn 0.204298 0.978851 -0.0106445 
vn 0.354632 0.797487 0.48811 
vn 0.354632 0.797487 0.488109 
vn 1.85528e-007 0.797487 -0.603336 
vn 0.204298 0.978851 -0.0106445 
vn 0.180481 0.811719 -0.555462 
vn 0.180481 0.811719 -0.555462 
vn 0.204298 0.978851 -0.0106445 
vn 0.472504 0.811719 -0.343294 
vn 0.472504 0.811719 -0.343294 
vn 0.204298 0.978851 -0.0106445 
vn 0.584048 0.811719 4.39179e-008 
vn 0.204138 -5.31643e-009 0.978942 
vn 0.204138 -5.31643e-009 0.978942 
vn 0.204138 -5.31643e-009 0.978942 
vn 0.204138 -5.31643e-009 0.978942 
vn -0.108295 0.993496 0.0351873 
vn -0.108295 0.993496 0.0351873 
vn -0.108295 0.993496 0.0351873 
vn -0.108295 0.993496 0.0351873 
vn -0.410256 3.17086e-008 -0.91197 
vn -0.410256 3.17086e-008 -0.91197 
vn -0.410256 3.17086e-008 -0.91197 
vn -0.410256 3.17086e-008 -0.91197 
vn -0.108295 -0.993496 0.0351872 
vn -0.108295 -0.993496 0.0351872 
vn -0.108295 -0.993496 0.0351872 
vn -0.108295 -0.993496 0.0351872 
f 2//1 10//2 9//3 1//4 
f 3//5 11//6 10//7 2//8 
f 4//9 12//10 11//11 3//12 
f 5//13 13//14 12//15 4//16 
f 6//17 14//18 13//19 5//20 
f 7//21 15//22 14//23 6//24 
f 8//25 16//26 15//27 7//28 
f 1//29 9//30 16//31 8//32 
f 10//33 17//34 9//35 
f 11//36 17//37 10//38 
f 12//39 17//40 11//41 
f 13//42 17//43 12//44 
f 14//45 17//46 13//47 
f 15//48 17//49 14//50 
f 16//51 17//52 15//53 
f 9//54 17//55 16//56 
f 20//57 19//58 18//59 
f 18//60 21//61 44//62 
f 44//63 20//64 18//65 
f 23//66 22//67 18//68 
f 24//69 23//70 18//71 
f 19//72 24//73 18//74 
f 20//75 26//76 25//77 19//78 
f 44//79 21//80 27//81 45//82 
f 45//83 26//84 20//85 44//86 
f 23//87 29//88 28//89 22//90 
f 24//91 30//92 29//93 23//94 
f 19//95 25//96 50//97 30//98 24//99 
f 26//100 32//101 31//102 49//103 25//104 
f 45//105 27//106 33//107 46//108 
f 46//109 32//110 26//111 45//112 
f 29//113 35//114 34//115 28//116 
f 30//117 51//118 36//119 35//120 29//121 
f 32//122 38//123 37//124 31//125 
f 46//126 33//127 39//128 47//129 
f 47//130 38//131 32//132 46//133 
f 35//134 41//135 40//136 34//137 
f 36//138 42//139 41//140 35//141 
f 48//142 31//143 37//144 42//145 36//146 
f 38//147 43//148 37//149 
f 43//150 38//151 47//152 
f 47//153 39//154 43//155 
f 41//156 43//157 40//158 
f 42//159 43//160 41//161 
f 37//162 43//163 42//164 
f 30//165 53//166 52//167 36//168 
f 25//169 54//170 53//171 30//172 
f 31//173 55//174 54//175 25//176 
f 36//177 52//178 55//179 31//180 
f 57//181 65//182 64//183 56//184 
f 58//185 66//186 65//187 57//188 
f 59//189 67//190 66//191 58//192 
f 60//193 68//194 67//195 59//196 
f 61//197 69//198 68//199 60//200 
f 62//201 70//202 69//203 61//204 
f 63//205 71//206 70//207 62//208 
f 56//209 64//210 71//211 63//212 
f 65//213 72//214 64//215 
f 66//216 72//217 65//218 
f 67//219 72//220 66//221 
f 68//222 72//223 67//224 
f 69//225 72//226 68//227 
f 70//228 72//229 69//230 
f 71//231 72//232 70//233 
f 64//234 72//235 71//236 
f 73//237 74//238 75//239 
f 97//240 76//241 73//242 
f 73//243 75//244 97//245 
f 73//246 77//247 78//248 
f 73//249 78//250 79//251 
f 73//252 79//253 74//254 
f 74//255 80//256 81//257 75//258 
f 98//259 82//260 76//261 97//262 
f 97//263 75//264 81//265 98//266 
f 77//267 28//268 83//269 78//270 
f 78//271 83//272 84//273 79//274 
f 79//275 84//276 103//277 80//278 74//279 
f 80//280 102//281 85//282 86//283 81//284 
f 99//285 87//286 82//287 98//288 
f 98//289 81//290 86//291 99//292 
f 28//293 34//294 88//295 83//296 
f 83//297 88//298 89//299 104//300 84//301 
f 85//302 90//303 91//304 86//305 
f 100//306 92//307 87//308 99//309 
f 99//310 86//311 91//312 100//313 
f 34//314 93//315 94//316 88//317 
f 88//318 94//319 95//320 89//321 
f 89//322 95//323 90//324 85//325 101//326 
f 90//327 96//328 91//329 
f 100//330 91//331 96//332 
f 96//333 92//334 100//335 
f 93//336 96//337 94//338 
f 94//339 96//340 95//341 
f 95//342 96//343 90//344 
f 84//345 106//346 105//347 89//348 
f 80//349 107//350 106//351 84//352 
f 85//353 108//354 107//355 80//356 
f 89//357 105//358 108//359 85//360 
